<svg xmlns="http://www.w3.org/2000/svg" viewBox="0 0 3 2">
  <rect width="3" height="2" fill="#003399"/>
  <g fill="#FFCC00">
    <!-- 12 stars at 30° intervals, circle centre (1.5,1), circle r=0.5, star outer r=0.1, inner r=0.04 -->
    <polygon points="1.5,0.4 1.529,0.49 1.622,0.49 1.547,0.543 1.575,0.636 1.5,0.583 1.425,0.636 1.453,0.543 1.378,0.49 1.471,0.49"/>
    <polygon points="1.933,0.567 1.962,0.657 2.055,0.657 1.98,0.71 2.008,0.803 1.933,0.75 1.858,0.803 1.886,0.71 1.811,0.657 1.904,0.657"/>
    <polygon points="2.1,1 2.129,1.09 2.222,1.09 2.147,1.143 2.175,1.236 2.1,1.183 2.025,1.236 2.053,1.143 1.978,1.09 2.071,1.09"/>
    <polygon points="1.933,1.433 1.962,1.523 2.055,1.523 1.98,1.576 2.008,1.669 1.933,1.616 1.858,1.669 1.886,1.576 1.811,1.523 1.904,1.523"/>
    <polygon points="1.5,1.6 1.529,1.69 1.622,1.69 1.547,1.743 1.575,1.836 1.5,1.783 1.425,1.836 1.453,1.743 1.378,1.69 1.471,1.69"/>
    <polygon points="1.067,1.433 1.096,1.523 1.189,1.523 1.114,1.576 1.142,1.669 1.067,1.616 0.992,1.669 1.02,1.576 0.945,1.523 1.038,1.523"/>
    <polygon points="0.9,1 0.929,1.09 1.022,1.09 0.947,1.143 0.975,1.236 0.9,1.183 0.825,1.236 0.853,1.143 0.778,1.09 0.871,1.09"/>
    <polygon points="1.067,0.567 1.096,0.657 1.189,0.657 1.114,0.71 1.142,0.803 1.067,0.75 0.992,0.803 1.02,0.71 0.945,0.657 1.038,0.657"/>
    <polygon points="1.25,0.453 1.279,0.543 1.372,0.543 1.297,0.596 1.325,0.689 1.25,0.636 1.175,0.689 1.203,0.596 1.128,0.543 1.221,0.543"/>
    <polygon points="1.75,0.453 1.779,0.543 1.872,0.543 1.797,0.596 1.825,0.689 1.75,0.636 1.675,0.689 1.703,0.596 1.628,0.543 1.721,0.543"/>
    <polygon points="1.75,1.547 1.779,1.637 1.872,1.637 1.797,1.69 1.825,1.783 1.75,1.73 1.675,1.783 1.703,1.69 1.628,1.637 1.721,1.637"/>
    <polygon points="1.25,1.547 1.279,1.637 1.372,1.637 1.297,1.69 1.325,1.783 1.25,1.73 1.175,1.783 1.203,1.69 1.128,1.637 1.221,1.637"/>
  </g>
</svg>
