<svg xmlns="http://www.w3.org/2000/svg" viewBox="0 0 280 280" fill="none" shape-rendering="auto">
<mask id="viewboxMask"><rect width="280" height="280" rx="0" ry="0" x="0" y="0" fill="#fff"/></mask>
<g mask="url(#viewboxMask)">
<!-- Dark navy background — authoritative -->
<rect fill="#1e293b" width="280" height="280" x="0" y="0"/>
<g transform="translate(8)">
<!-- Body / face — light skin -->
<path d="M132 36a56 56 0 0 0-56 56v6.17A12 12 0 0 0 66 110v14a12 12 0 0 0 10.3 11.88 56.04 56.04 0 0 0 31.7 44.73v18.4h-4a72 72 0 0 0-72 72v9h200v-9a72 72 0 0 0-72-72h-4v-18.39a56.04 56.04 0 0 0 31.7-44.73A12 12 0 0 0 198 124v-14a12 12 0 0 0-10-11.83V92a56 56 0 0 0-56-56Z" fill="#ffdbb4"/>
<!-- Neck shadow -->
<path d="M108 180.61v8a55.79 55.79 0 0 0 24 5.39c8.59 0 16.73-1.93 24-5.39v-8a55.79 55.79 0 0 1-24 5.39 55.79 55.79 0 0 1-24-5.39Z" fill="#000" fill-opacity=".1"/>

<!-- CLOTHING: dark suit -->
<g transform="translate(0 170)">
<!-- Suit jacket base — very dark navy -->
<path d="M132.5 51.83c18.5 0 33.5-9.62 33.5-21.48 0-.36-.01-.7-.04-1.06A72 72 0 0 1 232 101.04V110H32v-8.95a72 72 0 0 1 67.05-71.83c-.03.37-.05.75-.05 1.13 0 11.86 15 21.48 33.5 21.48Z" fill="#0f172a"/>
<!-- Left lapel -->
<path d="M100.78 29.12 101 28c-2.96.05-6 1-6 1l-.42.66A72.01 72.01 0 0 0 32 101.06V110h74s-10.7-51.56-5.24-80.8l.02-.08Z" fill="#1e293b"/>
<!-- Right lapel -->
<path d="M158 110s11-53 5-82c2.96.05 6 1 6 1l.42.66a72.01 72.01 0 0 1 62.58 71.4V110h-74Z" fill="#1e293b"/>
<!-- Inner lapel shadows -->
<path d="M101 28c-6 29 5 82 5 82H90L76 74l6-9-6-6 19-30s3.04-.95 6-1ZM163 28c6 29-5 82-5 82h16l14-36-6-9 6-6-19-30s-3.04-.95-6-1Z" fill-rule="evenodd" clip-rule="evenodd" fill="#000" fill-opacity=".15"/>
<!-- Shoulder detail -->
<path d="m183.42 85.77.87-2.24 6.27-4.7a4 4 0 0 1 4.85.05l6.6 5.12-18.59 1.77Z" fill="#334155"/>
<!-- White shirt collar -->
<path d="M124 22 L140 46 L156 22 L150 16 L130 16 Z" fill="#f1f5f9"/>
<!-- Tie knot -->
<path d="M136 24 L140 18 L144 24 L142 34 L138 34 Z" fill="#7c2d12"/>
<!-- Tie body -->
<path d="M138 34 L142 34 L140.5 76 Z" fill="#991b1b"/>
</g>

<!-- MOUTH: composed, slight smile -->
<g transform="translate(78 134)">
<path fill-rule="evenodd" clip-rule="evenodd" d="M40 15a14 14 0 1 0 28 0" fill="#000" fill-opacity=".6"/>
</g>

<!-- Eye underline detail -->
<g transform="translate(104 122)">
<path fill-rule="evenodd" clip-rule="evenodd" d="M16 8c0 4.42 5.37 8 12 8s12-3.58 12-8" fill="#000" fill-opacity=".16"/>
</g>

<!-- EYES: round whites with dark pupils -->
<g transform="translate(76 90)">
<path d="M44 22a14 14 0 1 1-28 0 14 14 0 0 1 28 0ZM96 22a14 14 0 1 1-28 0 14 14 0 0 1 28 0Z" fill="#fff"/>
<path d="M36 22a6 6 0 1 1-12 0 6 6 0 0 1 12 0ZM88 22a6 6 0 1 1-12 0 6 6 0 0 1 12 0Z" fill="#000" fill-opacity=".7"/>
</g>

<!-- GLASSES: rectangular dark frames -->
<g transform="translate(76 86)">
<!-- Left lens -->
<rect x="14" y="14" width="32" height="22" rx="3" fill="none" stroke="#334155" stroke-width="3.5"/>
<!-- Right lens -->
<rect x="66" y="14" width="32" height="22" rx="3" fill="none" stroke="#334155" stroke-width="3.5"/>
<!-- Bridge -->
<path d="M46 25 H66" stroke="#334155" stroke-width="2.5" stroke-linecap="round"/>
<!-- Left temple -->
<path d="M14 25 H3" stroke="#334155" stroke-width="2.5" stroke-linecap="round"/>
<!-- Right temple -->
<path d="M98 25 H109" stroke="#334155" stroke-width="2.5" stroke-linecap="round"/>
</g>

<!-- EYEBROWS: straight, authoritative -->
<g transform="translate(76 82)">
<path d="M16 10 Q30 6 44 10" stroke="#475569" stroke-width="4.5" stroke-linecap="round" fill="none"/>
<path d="M68 10 Q82 6 96 10" stroke="#475569" stroke-width="4.5" stroke-linecap="round" fill="none"/>
</g>

<!-- HAIR: short, grey — distinguished senior -->
<g transform="translate(-1)">
<path fill-rule="evenodd" clip-rule="evenodd" d="M151.12 28.28c3.06-2.97 4.88-6.71 4.88-10.78C156 7.84 145.7 0 133 0s-23 7.84-23 17.5c0 4.1 1.85 7.86 4.94 10.84-.99.22-1.95.45-2.9.69-15.1 3.8-24.02 14.62-31.68 30.62a67.68 67.68 0 0 0-6.34 25.83c-.13 3.41.33 6.94 1.25 10.22.33 1.2 2.15 5.39 2.65 2 .1-.66-.07-1.47-.24-2.27-.12-.55-.23-1.1-.26-1.6-.08-1.56 0-3.15.11-4.72.2-2.92.73-5.8 1.65-8.59 1.33-3.98 3.02-8.3 5.6-11.67.97-1.25 1.88-2.7 2.88-4.27 5.63-8.9 13.68-21.6 45.34-22.9 34.3-1.42 46.78 21.66 51.21 29.87.38.7.7 1.3.97 1.75 2.67 4.53 2.78 9.75 2.9 14.91.05 2.71.11 5.41.54 8 .47 2.84 1.54 2.78 2.13.23 1-4.33 1.47-8.83 1.15-13.28-.72-10.05-4.4-36.45-24.6-48.15a65.52 65.52 0 0 0-16.18-6.73Z" fill="#64748b"/>
</g>

<g transform="translate(49 72)"></g>
<g transform="translate(62 42)"></g>
</g>
</g>
</svg>
