<svg xmlns="http://www.w3.org/2000/svg" width="600" height="780" viewBox="0 0 600 780" fill="none">
  <rect width="600" height="780" rx="28" fill="#F8FAFC"/>
  <rect x="48" y="40" width="504" height="700" rx="24" fill="white" stroke="#E2E8F0" stroke-width="2"/>
  <rect x="84" y="84" width="188" height="22" rx="11" fill="#E11D48" fill-opacity=".12"/>
  <rect x="84" y="124" width="412" height="16" rx="8" fill="#CBD5E1"/>
  <rect x="84" y="176" width="432" height="470" rx="20" fill="#FFF1F2" stroke="#FBCFE8"/>
  <rect x="120" y="224" width="360" height="56" rx="16" fill="#FECDD3"/>
  <circle cx="156" cy="252" r="12" fill="#E11D48"/>
  <rect x="182" y="240" width="248" height="12" rx="6" fill="#881337"/>
  <rect x="182" y="260" width="180" height="10" rx="5" fill="#FB7185"/>
  <rect x="120" y="308" width="360" height="56" rx="16" fill="#FFE4E6"/>
  <circle cx="156" cy="336" r="12" fill="#E11D48"/>
  <rect x="182" y="324" width="228" height="12" rx="6" fill="#881337"/>
  <rect x="182" y="344" width="192" height="10" rx="5" fill="#FB7185"/>
  <rect x="120" y="392" width="360" height="56" rx="16" fill="#FFE4E6"/>
  <circle cx="156" cy="420" r="12" fill="#E11D48"/>
  <rect x="182" y="408" width="232" height="12" rx="6" fill="#881337"/>
  <rect x="182" y="428" width="168" height="10" rx="5" fill="#FB7185"/>
  <rect x="120" y="476" width="360" height="56" rx="16" fill="#FFE4E6"/>
  <circle cx="156" cy="504" r="12" fill="#E11D48"/>
  <rect x="182" y="492" width="222" height="12" rx="6" fill="#881337"/>
  <rect x="182" y="512" width="204" height="10" rx="5" fill="#FB7185"/>
  <rect x="84" y="678" width="236" height="18" rx="9" fill="#E2E8F0"/>
</svg>
