<svg xmlns="http://www.w3.org/2000/svg" width="600" height="780" viewBox="0 0 600 780" fill="none">
  <rect width="600" height="780" rx="28" fill="#FFF7ED"/>
  <rect x="42" y="42" width="516" height="696" rx="24" fill="white" stroke="#FDBA74" stroke-width="2"/>
  <rect x="72" y="74" width="180" height="28" rx="14" fill="#FFEDD5"/>
  <rect x="72" y="124" width="310" height="26" rx="13" fill="#1F2937"/>
  <rect x="72" y="164" width="252" height="14" rx="7" fill="#CBD5E1"/>
  <rect x="72" y="216" width="456" height="92" rx="18" fill="#FFF7ED"/>
  <circle cx="112" cy="260" r="18" fill="#FB923C"/>
  <path d="M103 260l7 7 13-15" stroke="white" stroke-width="4" stroke-linecap="round" stroke-linejoin="round"/>
  <rect x="146" y="242" width="250" height="14" rx="7" fill="#334155"/>
  <rect x="146" y="268" width="204" height="12" rx="6" fill="#94A3B8"/>
  <rect x="72" y="330" width="456" height="92" rx="18" fill="#FFF7ED"/>
  <circle cx="112" cy="374" r="18" fill="#FB923C"/>
  <path d="M103 374l7 7 13-15" stroke="white" stroke-width="4" stroke-linecap="round" stroke-linejoin="round"/>
  <rect x="146" y="356" width="238" height="14" rx="7" fill="#334155"/>
  <rect x="146" y="382" width="224" height="12" rx="6" fill="#94A3B8"/>
  <rect x="72" y="444" width="456" height="92" rx="18" fill="#FFF7ED"/>
  <circle cx="112" cy="488" r="18" fill="#FB923C"/>
  <path d="M103 488l7 7 13-15" stroke="white" stroke-width="4" stroke-linecap="round" stroke-linejoin="round"/>
  <rect x="146" y="470" width="264" height="14" rx="7" fill="#334155"/>
  <rect x="146" y="496" width="212" height="12" rx="6" fill="#94A3B8"/>
  <rect x="72" y="584" width="198" height="86" rx="18" fill="#FFF1F2"/>
  <rect x="292" y="584" width="236" height="86" rx="18" fill="#FFF1F2"/>
</svg>
