<svg xmlns="http://www.w3.org/2000/svg" width="600" height="780" viewBox="0 0 600 780" fill="none">
  <rect width="600" height="780" rx="28" fill="#F8FAFC"/>
  <rect x="48" y="40" width="504" height="700" rx="24" fill="white" stroke="#E2E8F0" stroke-width="2"/>
  <rect x="84" y="84" width="156" height="22" rx="11" fill="#E11D48" fill-opacity=".12"/>
  <rect x="84" y="124" width="396" height="16" rx="8" fill="#CBD5E1"/>
  <rect x="84" y="176" width="432" height="504" rx="20" fill="#EFF6FF" stroke="#BFDBFE"/>
  <rect x="116" y="214" width="368" height="84" rx="18" fill="white" stroke="#DBEAFE"/>
  <rect x="152" y="238" width="172" height="18" rx="9" fill="#93C5FD"/>
  <rect x="152" y="270" width="124" height="18" rx="9" fill="#DBEAFE"/>
  <circle cx="404" cy="256" r="28" fill="#DBEAFE"/>
  <path d="M404 238v36M386 256h36" stroke="#2563EB" stroke-width="8" stroke-linecap="round"/>
  <rect x="116" y="330" width="368" height="84" rx="18" fill="white" stroke="#DBEAFE"/>
  <rect x="152" y="354" width="186" height="18" rx="9" fill="#60A5FA"/>
  <rect x="152" y="386" width="146" height="18" rx="9" fill="#BFDBFE"/>
  <rect x="116" y="446" width="368" height="84" rx="18" fill="white" stroke="#DBEAFE"/>
  <rect x="152" y="470" width="198" height="18" rx="9" fill="#38BDF8"/>
  <rect x="152" y="502" width="152" height="18" rx="9" fill="#BAE6FD"/>
  <rect x="116" y="562" width="368" height="84" rx="18" fill="white" stroke="#DBEAFE"/>
  <rect x="152" y="586" width="178" height="18" rx="9" fill="#2563EB" fill-opacity=".3"/>
  <rect x="152" y="618" width="132" height="18" rx="9" fill="#DBEAFE"/>
</svg>
