<svg xmlns="http://www.w3.org/2000/svg" width="600" height="780" viewBox="0 0 600 780">
  <rect width="600" height="780" fill="#F8FAFC"/>
  <!-- Page shadow -->
  <rect x="44" y="44" width="512" height="692" rx="4" fill="#E2E8F0"/>
  <!-- Page -->
  <rect x="40" y="40" width="512" height="692" rx="4" fill="white" stroke="#E2E8F0" stroke-width="1"/>
  <!-- Header bar -->
  <rect x="40" y="40" width="512" height="6" rx="4" fill="#E11D48"/>
  <!-- Logo placeholder -->
  <rect x="64" y="72" width="80" height="16" rx="3" fill="#FBCFE8"/>
  <!-- Title lines -->
  <rect x="64" y="112" width="340" height="14" rx="3" fill="#0F172A"/>
  <rect x="64" y="134" width="260" height="14" rx="3" fill="#0F172A"/>
  <!-- Subtitle -->
  <rect x="64" y="164" width="310" height="10" rx="2" fill="#CBD5E1"/>
  <!-- Divider -->
  <line x1="64" y1="190" x2="528" y2="190" stroke="#F1F5F9" stroke-width="1.5"/>
  <!-- Table header - 4 columns -->
  <rect x="64" y="204" width="464" height="28" rx="3" fill="#FFF1F2"/>
  <rect x="76" y="212" width="80" height="10" rx="2" fill="#E11D48"/>
  <rect x="196" y="212" width="90" height="10" rx="2" fill="#E11D48"/>
  <rect x="336" y="212" width="80" height="10" rx="2" fill="#E11D48"/>
  <rect x="444" y="212" width="60" height="10" rx="2" fill="#E11D48"/>
  <!-- Table rows -->
  <rect x="64" y="244" width="464" height="1" fill="#F1F5F9"/>
  <rect x="76" y="254" width="90" height="8" rx="2" fill="#94A3B8"/>
  <rect x="196" y="254" width="100" height="8" rx="2" fill="#94A3B8"/>
  <rect x="336" y="254" width="70" height="8" rx="2" fill="#94A3B8"/>
  <rect x="444" y="254" width="55" height="8" rx="2" fill="#94A3B8"/>
  <rect x="64" y="274" width="464" height="1" fill="#F1F5F9"/>
  <rect x="76" y="284" width="75" height="8" rx="2" fill="#94A3B8"/>
  <rect x="196" y="284" width="80" height="8" rx="2" fill="#94A3B8"/>
  <rect x="336" y="284" width="90" height="8" rx="2" fill="#94A3B8"/>
  <rect x="444" y="284" width="48" height="8" rx="2" fill="#94A3B8"/>
  <rect x="64" y="304" width="464" height="1" fill="#F1F5F9"/>
  <rect x="76" y="314" width="100" height="8" rx="2" fill="#94A3B8"/>
  <rect x="196" y="314" width="70" height="8" rx="2" fill="#94A3B8"/>
  <rect x="336" y="314" width="80" height="8" rx="2" fill="#94A3B8"/>
  <rect x="444" y="314" width="52" height="8" rx="2" fill="#94A3B8"/>
  <rect x="64" y="334" width="464" height="1" fill="#F1F5F9"/>
  <rect x="76" y="344" width="85" height="8" rx="2" fill="#94A3B8"/>
  <rect x="196" y="344" width="95" height="8" rx="2" fill="#94A3B8"/>
  <rect x="336" y="344" width="75" height="8" rx="2" fill="#94A3B8"/>
  <rect x="444" y="344" width="44" height="8" rx="2" fill="#94A3B8"/>
  <!-- Investigation box -->
  <rect x="64" y="370" width="464" height="60" rx="3" fill="#F8FAFC" stroke="#E2E8F0" stroke-width="1"/>
  <rect x="76" y="382" width="120" height="9" rx="2" fill="#0F172A"/>
  <rect x="76" y="400" width="440" height="7" rx="2" fill="#E2E8F0"/>
  <rect x="76" y="414" width="380" height="7" rx="2" fill="#E2E8F0"/>
  <!-- Section heading -->
  <rect x="64" y="452" width="200" height="11" rx="2" fill="#0F172A"/>
  <!-- Body text lines -->
  <rect x="64" y="476" width="464" height="8" rx="2" fill="#E2E8F0"/>
  <rect x="64" y="492" width="430" height="8" rx="2" fill="#E2E8F0"/>
  <rect x="64" y="508" width="370" height="8" rx="2" fill="#E2E8F0"/>
  <!-- Second section heading -->
  <rect x="64" y="536" width="170" height="11" rx="2" fill="#0F172A"/>
  <rect x="64" y="560" width="464" height="8" rx="2" fill="#E2E8F0"/>
  <rect x="64" y="576" width="410" height="8" rx="2" fill="#E2E8F0"/>
  <rect x="64" y="592" width="350" height="8" rx="2" fill="#E2E8F0"/>
  <!-- Signature block -->
  <rect x="64" y="640" width="160" height="1" fill="#CBD5E1"/>
  <rect x="64" y="650" width="100" height="8" rx="2" fill="#CBD5E1"/>
  <rect x="340" y="640" width="160" height="1" fill="#CBD5E1"/>
  <rect x="340" y="650" width="80" height="8" rx="2" fill="#CBD5E1"/>
  <!-- Footer -->
  <rect x="64" y="700" width="200" height="7" rx="2" fill="#E2E8F0"/>
  <rect x="440" y="700" width="88" height="7" rx="2" fill="#FBCFE8"/>
</svg>
