<svg xmlns="http://www.w3.org/2000/svg" width="600" height="780" viewBox="0 0 600 780" fill="none">
  <rect width="600" height="780" rx="28" fill="#F8FAFC"/>
  <rect x="48" y="40" width="504" height="700" rx="24" fill="white" stroke="#E2E8F0" stroke-width="2"/>
  <rect x="84" y="84" width="164" height="22" rx="11" fill="#E11D48" fill-opacity=".12"/>
  <rect x="84" y="124" width="388" height="16" rx="8" fill="#CBD5E1"/>
  <rect x="84" y="176" width="432" height="504" rx="20" fill="#FFF7ED" stroke="#FED7AA"/>
  <rect x="116" y="214" width="172" height="136" rx="18" fill="white" stroke="#FDE68A"/>
  <rect x="312" y="214" width="172" height="136" rx="18" fill="white" stroke="#FDE68A"/>
  <rect x="116" y="374" width="368" height="104" rx="18" fill="white" stroke="#FDE68A"/>
  <rect x="116" y="502" width="368" height="144" rx="18" fill="white" stroke="#FDE68A"/>
  <rect x="148" y="250" width="108" height="64" rx="12" fill="#FEF3C7"/>
  <rect x="344" y="250" width="108" height="64" rx="12" fill="#FED7AA"/>
  <rect x="164" y="270" width="76" height="12" rx="6" fill="#F59E0B"/>
  <rect x="360" y="270" width="76" height="12" rx="6" fill="#EA580C"/>
  <rect x="156" y="410" width="232" height="18" rx="9" fill="#FCD34D"/>
  <rect x="156" y="442" width="184" height="18" rx="9" fill="#FDE68A"/>
  <rect x="156" y="538" width="264" height="18" rx="9" fill="#FDBA74"/>
  <rect x="156" y="570" width="210" height="18" rx="9" fill="#FED7AA"/>
  <rect x="156" y="602" width="186" height="18" rx="9" fill="#FFEDD5"/>
</svg>
