<svg xmlns="http://www.w3.org/2000/svg" width="600" height="780" viewBox="0 0 600 780">
  <rect width="600" height="780" fill="#F8FAFC"/>
  <!-- Page shadow -->
  <rect x="44" y="44" width="512" height="692" rx="4" fill="#E2E8F0"/>
  <!-- Page -->
  <rect x="40" y="40" width="512" height="692" rx="4" fill="white" stroke="#E2E8F0" stroke-width="1"/>
  <!-- Header bar -->
  <rect x="40" y="40" width="512" height="6" rx="4" fill="#E11D48"/>
  <!-- Logo placeholder -->
  <rect x="64" y="72" width="80" height="16" rx="3" fill="#FBCFE8"/>
  <!-- Title lines -->
  <rect x="64" y="112" width="370" height="14" rx="3" fill="#0F172A"/>
  <rect x="64" y="134" width="250" height="14" rx="3" fill="#0F172A"/>
  <!-- Subtitle -->
  <rect x="64" y="164" width="290" height="10" rx="2" fill="#CBD5E1"/>
  <!-- Divider -->
  <line x1="64" y1="190" x2="528" y2="190" stroke="#F1F5F9" stroke-width="1.5"/>
  <!-- Equipment schedule box -->
  <rect x="64" y="204" width="220" height="80" rx="3" fill="#FFF1F2" stroke="#FBCFE8" stroke-width="1"/>
  <rect x="76" y="216" width="120" height="9" rx="2" fill="#E11D48"/>
  <rect x="76" y="234" width="180" height="7" rx="2" fill="#94A3B8"/>
  <rect x="76" y="248" width="160" height="7" rx="2" fill="#94A3B8"/>
  <rect x="76" y="262" width="140" height="7" rx="2" fill="#94A3B8"/>
  <!-- Due date indicator -->
  <rect x="308" y="204" width="220" height="80" rx="3" fill="#F0FDF4" stroke="#BBF7D0" stroke-width="1"/>
  <rect x="320" y="216" width="100" height="9" rx="2" fill="#16A34A"/>
  <rect x="320" y="234" width="170" height="7" rx="2" fill="#94A3B8"/>
  <rect x="320" y="248" width="150" height="7" rx="2" fill="#94A3B8"/>
  <rect x="320" y="262" width="130" height="7" rx="2" fill="#94A3B8"/>
  <!-- Table header -->
  <rect x="64" y="304" width="464" height="28" rx="3" fill="#FFF1F2"/>
  <rect x="76" y="312" width="80" height="10" rx="2" fill="#E11D48"/>
  <rect x="188" y="312" width="70" height="10" rx="2" fill="#E11D48"/>
  <rect x="296" y="312" width="80" height="10" rx="2" fill="#E11D48"/>
  <rect x="416" y="312" width="80" height="10" rx="2" fill="#E11D48"/>
  <!-- Table rows -->
  <rect x="64" y="344" width="464" height="1" fill="#F1F5F9"/>
  <rect x="76" y="354" width="90" height="8" rx="2" fill="#94A3B8"/>
  <rect x="188" y="354" width="65" height="8" rx="2" fill="#94A3B8"/>
  <rect x="296" y="354" width="75" height="8" rx="2" fill="#94A3B8"/>
  <rect x="416" y="354" width="70" height="8" rx="2" fill="#94A3B8"/>
  <rect x="64" y="374" width="464" height="1" fill="#F1F5F9"/>
  <rect x="76" y="384" width="75" height="8" rx="2" fill="#94A3B8"/>
  <rect x="188" y="384" width="80" height="8" rx="2" fill="#94A3B8"/>
  <rect x="296" y="384" width="60" height="8" rx="2" fill="#94A3B8"/>
  <rect x="416" y="384" width="85" height="8" rx="2" fill="#94A3B8"/>
  <rect x="64" y="404" width="464" height="1" fill="#F1F5F9"/>
  <rect x="76" y="414" width="100" height="8" rx="2" fill="#94A3B8"/>
  <rect x="188" y="414" width="55" height="8" rx="2" fill="#94A3B8"/>
  <rect x="296" y="414" width="70" height="8" rx="2" fill="#94A3B8"/>
  <!-- Out of tolerance row - highlighted -->
  <rect x="64" y="424" width="464" height="28" fill="#FFF7ED"/>
  <rect x="64" y="424" width="3" height="28" fill="#F97316"/>
  <rect x="76" y="432" width="85" height="8" rx="2" fill="#94A3B8"/>
  <rect x="188" y="432" width="60" height="8" rx="2" fill="#F97316"/>
  <rect x="296" y="432" width="80" height="8" rx="2" fill="#94A3B8"/>
  <rect x="416" y="432" width="75" height="8" rx="2" fill="#94A3B8"/>
  <!-- Section heading -->
  <rect x="64" y="474" width="190" height="11" rx="2" fill="#0F172A"/>
  <!-- Body text lines -->
  <rect x="64" y="498" width="464" height="8" rx="2" fill="#E2E8F0"/>
  <rect x="64" y="514" width="440" height="8" rx="2" fill="#E2E8F0"/>
  <rect x="64" y="530" width="380" height="8" rx="2" fill="#E2E8F0"/>
  <!-- Second section heading -->
  <rect x="64" y="558" width="160" height="11" rx="2" fill="#0F172A"/>
  <rect x="64" y="582" width="464" height="8" rx="2" fill="#E2E8F0"/>
  <rect x="64" y="598" width="410" height="8" rx="2" fill="#E2E8F0"/>
  <rect x="64" y="614" width="350" height="8" rx="2" fill="#E2E8F0"/>
  <!-- Signature block -->
  <rect x="64" y="648" width="160" height="1" fill="#CBD5E1"/>
  <rect x="64" y="658" width="100" height="8" rx="2" fill="#CBD5E1"/>
  <rect x="340" y="648" width="160" height="1" fill="#CBD5E1"/>
  <rect x="340" y="658" width="80" height="8" rx="2" fill="#CBD5E1"/>
  <!-- Footer -->
  <rect x="64" y="700" width="200" height="7" rx="2" fill="#E2E8F0"/>
  <rect x="440" y="700" width="88" height="7" rx="2" fill="#FBCFE8"/>
</svg>
