<svg xmlns="http://www.w3.org/2000/svg" width="600" height="780" viewBox="0 0 600 780" fill="none">
  <rect width="600" height="780" rx="28" fill="#F8FAFC"/>
  <rect x="44" y="38" width="512" height="704" rx="24" fill="white" stroke="#E2E8F0" stroke-width="2"/>
  <rect x="80" y="78" width="214" height="24" rx="12" fill="#FFE4E6"/>
  <rect x="80" y="124" width="296" height="24" rx="8" fill="#0F172A"/>
  <rect x="80" y="170" width="440" height="78" rx="18" fill="#FFF7ED"/>
  <rect x="104" y="196" width="132" height="12" rx="6" fill="#EA580C"/>
  <rect x="104" y="220" width="312" height="12" rx="6" fill="#FDBA74"/>
  <rect x="80" y="282" width="158" height="18" rx="9" fill="#0F172A"/>
  <rect x="80" y="320" width="440" height="258" rx="18" fill="#F8FAFC"/>
  <rect x="104" y="350" width="392" height="18" rx="9" fill="#E2E8F0"/>
  <rect x="104" y="390" width="26" height="26" rx="6" fill="#E11D48"/>
  <rect x="146" y="396" width="188" height="14" rx="7" fill="#CBD5E1"/>
  <rect x="104" y="436" width="26" height="26" rx="6" fill="#E11D48"/>
  <rect x="146" y="442" width="228" height="14" rx="7" fill="#CBD5E1"/>
  <rect x="104" y="482" width="26" height="26" rx="6" fill="#E11D48"/>
  <rect x="146" y="488" width="166" height="14" rx="7" fill="#CBD5E1"/>
  <rect x="80" y="614" width="188" height="18" rx="9" fill="#0F172A"/>
  <rect x="80" y="650" width="330" height="14" rx="7" fill="#CBD5E1"/>
  <rect x="432" y="642" width="88" height="34" rx="17" fill="#E11D48"/>
</svg>
