<svg xmlns="http://www.w3.org/2000/svg" width="600" height="780" viewBox="0 0 600 780">
  <rect width="600" height="780" fill="#F8FAFC"/>
  <!-- Page shadow -->
  <rect x="44" y="44" width="512" height="692" rx="4" fill="#E2E8F0"/>
  <!-- Page -->
  <rect x="40" y="40" width="512" height="692" rx="4" fill="white" stroke="#E2E8F0" stroke-width="1"/>
  <!-- Header bar -->
  <rect x="40" y="40" width="512" height="6" rx="4" fill="#E11D48"/>
  <!-- Logo placeholder -->
  <rect x="64" y="72" width="80" height="16" rx="3" fill="#FBCFE8"/>
  <!-- Title lines -->
  <rect x="64" y="112" width="380" height="14" rx="3" fill="#0F172A"/>
  <rect x="64" y="134" width="280" height="14" rx="3" fill="#0F172A"/>
  <!-- Subtitle -->
  <rect x="64" y="164" width="320" height="10" rx="2" fill="#CBD5E1"/>
  <!-- Divider -->
  <line x1="64" y1="190" x2="528" y2="190" stroke="#F1F5F9" stroke-width="1.5"/>
  <!-- Table header -->
  <rect x="64" y="204" width="464" height="28" rx="3" fill="#FFF1F2"/>
  <rect x="76" y="212" width="100" height="10" rx="2" fill="#E11D48"/>
  <rect x="220" y="212" width="80" height="10" rx="2" fill="#E11D48"/>
  <rect x="360" y="212" width="80" height="10" rx="2" fill="#E11D48"/>
  <!-- Table rows -->
  <rect x="64" y="244" width="464" height="1" fill="#F1F5F9"/>
  <rect x="76" y="254" width="120" height="8" rx="2" fill="#94A3B8"/>
  <rect x="220" y="254" width="60" height="8" rx="2" fill="#94A3B8"/>
  <rect x="360" y="254" width="90" height="8" rx="2" fill="#94A3B8"/>
  <rect x="64" y="274" width="464" height="1" fill="#F1F5F9"/>
  <rect x="76" y="284" width="100" height="8" rx="2" fill="#94A3B8"/>
  <rect x="220" y="284" width="80" height="8" rx="2" fill="#94A3B8"/>
  <rect x="360" y="284" width="70" height="8" rx="2" fill="#94A3B8"/>
  <rect x="64" y="304" width="464" height="1" fill="#F1F5F9"/>
  <rect x="76" y="314" width="140" height="8" rx="2" fill="#94A3B8"/>
  <rect x="220" y="314" width="50" height="8" rx="2" fill="#94A3B8"/>
  <rect x="360" y="314" width="110" height="8" rx="2" fill="#94A3B8"/>
  <rect x="64" y="334" width="464" height="1" fill="#F1F5F9"/>
  <rect x="76" y="344" width="110" height="8" rx="2" fill="#94A3B8"/>
  <rect x="220" y="344" width="70" height="8" rx="2" fill="#94A3B8"/>
  <rect x="360" y="344" width="80" height="8" rx="2" fill="#94A3B8"/>
  <!-- Section heading -->
  <rect x="64" y="376" width="200" height="11" rx="2" fill="#0F172A"/>
  <!-- Body text lines -->
  <rect x="64" y="400" width="464" height="8" rx="2" fill="#E2E8F0"/>
  <rect x="64" y="416" width="440" height="8" rx="2" fill="#E2E8F0"/>
  <rect x="64" y="432" width="380" height="8" rx="2" fill="#E2E8F0"/>
  <!-- Second section heading -->
  <rect x="64" y="460" width="160" height="11" rx="2" fill="#0F172A"/>
  <rect x="64" y="484" width="464" height="8" rx="2" fill="#E2E8F0"/>
  <rect x="64" y="500" width="420" height="8" rx="2" fill="#E2E8F0"/>
  <rect x="64" y="516" width="360" height="8" rx="2" fill="#E2E8F0"/>
  <!-- Signature block -->
  <rect x="64" y="580" width="160" height="1" fill="#CBD5E1"/>
  <rect x="64" y="590" width="100" height="8" rx="2" fill="#CBD5E1"/>
  <rect x="340" y="580" width="160" height="1" fill="#CBD5E1"/>
  <rect x="340" y="590" width="80" height="8" rx="2" fill="#CBD5E1"/>
  <!-- Footer -->
  <rect x="64" y="700" width="200" height="7" rx="2" fill="#E2E8F0"/>
  <rect x="440" y="700" width="88" height="7" rx="2" fill="#FBCFE8"/>
</svg>
