<svg xmlns="http://www.w3.org/2000/svg" width="600" height="780" viewBox="0 0 600 780" fill="none">
  <rect width="600" height="780" rx="28" fill="#F8FAFC"/>
  <rect x="48" y="40" width="504" height="700" rx="24" fill="white" stroke="#E2E8F0" stroke-width="2"/>
  <rect x="84" y="84" width="160" height="22" rx="11" fill="#E11D48" fill-opacity=".12"/>
  <rect x="84" y="124" width="372" height="16" rx="8" fill="#CBD5E1"/>
  <rect x="84" y="176" width="432" height="504" rx="20" fill="#EFF6FF" stroke="#BFDBFE"/>
  <circle cx="300" cy="274" r="78" fill="white" stroke="#DBEAFE"/>
  <path d="M254 314c8-40 14-96 34-96 11 0 12 18 12 31v-55c0-10 7-18 16-18s16 8 16 18v61c0-10 7-18 16-18s16 8 16 18v17c0-8 6-15 14-15s14 7 14 15v68c0 27-20 49-46 49h-38c-29 0-52-24-52-53v-22c0-8 6-14 14-14 6 0 10 5 14 14z" fill="#93C5FD"/>
  <rect x="132" y="408" width="336" height="84" rx="18" fill="white" stroke="#DBEAFE"/>
  <rect x="164" y="432" width="216" height="18" rx="9" fill="#60A5FA"/>
  <rect x="164" y="464" width="172" height="18" rx="9" fill="#DBEAFE"/>
  <rect x="132" y="516" width="336" height="84" rx="18" fill="white" stroke="#DBEAFE"/>
  <rect x="164" y="540" width="228" height="18" rx="9" fill="#38BDF8"/>
  <rect x="164" y="572" width="164" height="18" rx="9" fill="#BAE6FD"/>
</svg>
