<svg xmlns="http://www.w3.org/2000/svg" width="600" height="780" viewBox="0 0 600 780" fill="none">
  <rect width="600" height="780" rx="28" fill="#F8FAFC"/>
  <rect x="44" y="38" width="512" height="704" rx="24" fill="white" stroke="#E2E8F0" stroke-width="2"/>
  <rect x="80" y="78" width="178" height="24" rx="12" fill="#FFE4E6"/>
  <rect x="80" y="124" width="262" height="24" rx="8" fill="#0F172A"/>
  <rect x="80" y="170" width="440" height="84" rx="18" fill="#FFF7ED"/>
  <rect x="104" y="196" width="120" height="12" rx="6" fill="#EA580C"/>
  <rect x="104" y="220" width="264" height="12" rx="6" fill="#FDBA74"/>
  <rect x="80" y="292" width="200" height="18" rx="9" fill="#0F172A"/>
  <rect x="80" y="330" width="440" height="268" rx="18" fill="#F8FAFC"/>
  <rect x="104" y="358" width="96" height="14" rx="7" fill="#CBD5E1"/>
  <rect x="220" y="358" width="96" height="14" rx="7" fill="#CBD5E1"/>
  <rect x="336" y="358" width="96" height="14" rx="7" fill="#CBD5E1"/>
  <rect x="104" y="400" width="392" height="18" rx="9" fill="#E2E8F0"/>
  <rect x="104" y="442" width="392" height="18" rx="9" fill="#E2E8F0"/>
  <rect x="104" y="484" width="392" height="18" rx="9" fill="#E2E8F0"/>
  <rect x="104" y="526" width="392" height="18" rx="9" fill="#E2E8F0"/>
  <rect x="80" y="630" width="150" height="18" rx="9" fill="#0F172A"/>
  <rect x="80" y="666" width="312" height="14" rx="7" fill="#CBD5E1"/>
</svg>
