<svg xmlns="http://www.w3.org/2000/svg" width="600" height="780" viewBox="0 0 600 780" fill="none">
  <rect width="600" height="780" rx="28" fill="#F8FAFC"/>
  <rect x="48" y="40" width="504" height="700" rx="24" fill="white" stroke="#E2E8F0" stroke-width="2"/>
  <rect x="84" y="84" width="182" height="22" rx="11" fill="#2563EB" fill-opacity=".14"/>
  <rect x="84" y="124" width="412" height="16" rx="8" fill="#CBD5E1"/>
  <rect x="84" y="176" width="432" height="470" rx="20" fill="#EFF6FF" stroke="#BFDBFE"/>
  <polygon points="160,236 170,258 194,260 176,276 182,300 160,288 138,300 144,276 126,260 150,258" fill="#2563EB"/>
  <rect x="220" y="236" width="228" height="14" rx="7" fill="#60A5FA"/>
  <rect x="220" y="260" width="180" height="12" rx="6" fill="#BFDBFE"/>
  <polygon points="160,336 170,358 194,360 176,376 182,400 160,388 138,400 144,376 126,360 150,358" fill="#2563EB"/>
  <rect x="220" y="336" width="244" height="14" rx="7" fill="#60A5FA"/>
  <rect x="220" y="360" width="170" height="12" rx="6" fill="#BFDBFE"/>
  <polygon points="160,436 170,458 194,460 176,476 182,500 160,488 138,500 144,476 126,460 150,458" fill="#2563EB"/>
  <rect x="220" y="436" width="236" height="14" rx="7" fill="#60A5FA"/>
  <rect x="220" y="460" width="186" height="12" rx="6" fill="#BFDBFE"/>
  <rect x="84" y="678" width="218" height="18" rx="9" fill="#E2E8F0"/>
</svg>
