<svg xmlns="http://www.w3.org/2000/svg" width="600" height="780" viewBox="0 0 600 780" fill="none">
  <rect width="600" height="780" rx="28" fill="#F8FAFC"/>
  <rect x="48" y="40" width="504" height="700" rx="24" fill="white" stroke="#E2E8F0" stroke-width="2"/>
  <rect x="84" y="84" width="158" height="22" rx="11" fill="#E11D48" fill-opacity=".12"/>
  <rect x="84" y="124" width="390" height="16" rx="8" fill="#CBD5E1"/>
  <rect x="84" y="176" width="432" height="504" rx="20" fill="#FDF4FF" stroke="#E9D5FF"/>
  <rect x="116" y="214" width="368" height="120" rx="18" fill="white" stroke="#E9D5FF"/>
  <rect x="116" y="358" width="368" height="120" rx="18" fill="white" stroke="#E9D5FF"/>
  <rect x="116" y="502" width="368" height="144" rx="18" fill="white" stroke="#E9D5FF"/>
  <rect x="148" y="244" width="86" height="60" rx="12" fill="#FAE8FF"/>
  <rect x="250" y="244" width="202" height="16" rx="8" fill="#D8B4FE"/>
  <rect x="250" y="276" width="160" height="16" rx="8" fill="#F5D0FE"/>
  <rect x="148" y="388" width="86" height="60" rx="12" fill="#FCE7F3"/>
  <rect x="250" y="388" width="216" height="16" rx="8" fill="#F9A8D4"/>
  <rect x="250" y="420" width="174" height="16" rx="8" fill="#FBCFE8"/>
  <rect x="148" y="532" width="272" height="18" rx="9" fill="#C084FC"/>
  <rect x="148" y="564" width="216" height="18" rx="9" fill="#E9D5FF"/>
  <rect x="148" y="596" width="192" height="18" rx="9" fill="#F5D0FE"/>
</svg>
