<svg xmlns="http://www.w3.org/2000/svg" width="600" height="780" viewBox="0 0 600 780">
  <rect width="600" height="780" fill="#F8FAFC"/>
  <rect x="44" y="44" width="512" height="692" rx="4" fill="#E2E8F0"/>
  <rect x="40" y="40" width="512" height="692" rx="4" fill="white" stroke="#E2E8F0" stroke-width="1"/>
  <rect x="40" y="40" width="512" height="6" rx="4" fill="#E11D48"/>
  <rect x="64" y="72" width="112" height="16" rx="3" fill="#FBCFE8"/>
  <rect x="64" y="112" width="340" height="14" rx="3" fill="#0F172A"/>
  <rect x="64" y="134" width="286" height="14" rx="3" fill="#0F172A"/>
  <rect x="64" y="164" width="332" height="10" rx="2" fill="#CBD5E1"/>
  <line x1="64" y1="190" x2="528" y2="190" stroke="#F1F5F9" stroke-width="1.5"/>
  <rect x="64" y="208" width="464" height="30" rx="3" fill="#FFF1F2"/>
  <rect x="80" y="218" width="120" height="10" rx="2" fill="#E11D48"/>
  <rect x="240" y="218" width="96" height="10" rx="2" fill="#E11D48"/>
  <rect x="380" y="218" width="84" height="10" rx="2" fill="#E11D48"/>
  <rect x="64" y="258" width="464" height="1" fill="#F1F5F9"/>
  <rect x="80" y="270" width="138" height="8" rx="2" fill="#94A3B8"/>
  <rect x="240" y="270" width="90" height="8" rx="2" fill="#94A3B8"/>
  <rect x="380" y="270" width="104" height="8" rx="2" fill="#94A3B8"/>
  <rect x="64" y="300" width="464" height="1" fill="#F1F5F9"/>
  <rect x="80" y="312" width="124" height="8" rx="2" fill="#94A3B8"/>
  <rect x="240" y="312" width="110" height="8" rx="2" fill="#94A3B8"/>
  <rect x="380" y="312" width="92" height="8" rx="2" fill="#94A3B8"/>
  <rect x="64" y="342" width="464" height="1" fill="#F1F5F9"/>
  <rect x="80" y="354" width="146" height="8" rx="2" fill="#94A3B8"/>
  <rect x="240" y="354" width="102" height="8" rx="2" fill="#94A3B8"/>
  <rect x="380" y="354" width="112" height="8" rx="2" fill="#94A3B8"/>
  <rect x="64" y="404" width="200" height="11" rx="2" fill="#0F172A"/>
  <rect x="64" y="430" width="464" height="8" rx="2" fill="#E2E8F0"/>
  <rect x="64" y="446" width="438" height="8" rx="2" fill="#E2E8F0"/>
  <rect x="64" y="462" width="388" height="8" rx="2" fill="#E2E8F0"/>
  <rect x="64" y="498" width="176" height="11" rx="2" fill="#0F172A"/>
  <rect x="64" y="522" width="464" height="8" rx="2" fill="#E2E8F0"/>
  <rect x="64" y="538" width="424" height="8" rx="2" fill="#E2E8F0"/>
  <rect x="64" y="554" width="366" height="8" rx="2" fill="#E2E8F0"/>
  <rect x="64" y="700" width="212" height="7" rx="2" fill="#E2E8F0"/>
</svg>
