<svg xmlns="http://www.w3.org/2000/svg" width="600" height="780" viewBox="0 0 600 780" fill="none">
  <rect width="600" height="780" rx="28" fill="#F8FAFC"/>
  <rect x="44" y="38" width="512" height="704" rx="24" fill="white" stroke="#E2E8F0" stroke-width="2"/>
  <rect x="80" y="78" width="154" height="24" rx="12" fill="#FFE4E6"/>
  <rect x="80" y="124" width="286" height="24" rx="8" fill="#0F172A"/>
  <rect x="80" y="170" width="440" height="84" rx="18" fill="#FFF1F2"/>
  <rect x="104" y="196" width="114" height="12" rx="6" fill="#E11D48"/>
  <rect x="104" y="220" width="244" height="12" rx="6" fill="#FDA4AF"/>
  <rect x="80" y="292" width="190" height="18" rx="9" fill="#0F172A"/>
  <rect x="80" y="330" width="440" height="290" rx="18" fill="#F8FAFC"/>
  <rect x="104" y="358" width="118" height="14" rx="7" fill="#CBD5E1"/>
  <rect x="240" y="358" width="118" height="14" rx="7" fill="#CBD5E1"/>
  <rect x="376" y="358" width="118" height="14" rx="7" fill="#CBD5E1"/>
  <rect x="104" y="400" width="392" height="18" rx="9" fill="#E2E8F0"/>
  <rect x="104" y="442" width="392" height="18" rx="9" fill="#E2E8F0"/>
  <rect x="104" y="484" width="392" height="18" rx="9" fill="#E2E8F0"/>
  <rect x="104" y="526" width="392" height="18" rx="9" fill="#E2E8F0"/>
  <rect x="104" y="568" width="392" height="18" rx="9" fill="#E2E8F0"/>
  <rect x="80" y="650" width="160" height="18" rx="9" fill="#0F172A"/>
  <rect x="80" y="686" width="300" height="14" rx="7" fill="#CBD5E1"/>
</svg>
