<svg xmlns="http://www.w3.org/2000/svg" width="600" height="780" viewBox="0 0 600 780">
  <rect width="600" height="780" fill="#F8FAFC"/>
  <!-- Page shadow -->
  <rect x="44" y="44" width="512" height="692" rx="4" fill="#E2E8F0"/>
  <!-- Page -->
  <rect x="40" y="40" width="512" height="692" rx="4" fill="white" stroke="#E2E8F0" stroke-width="1"/>
  <!-- Header bar -->
  <rect x="40" y="40" width="512" height="6" rx="4" fill="#E11D48"/>
  <!-- Logo placeholder -->
  <rect x="64" y="72" width="80" height="16" rx="3" fill="#FBCFE8"/>
  <!-- Title lines -->
  <rect x="64" y="112" width="360" height="14" rx="3" fill="#0F172A"/>
  <rect x="64" y="134" width="260" height="14" rx="3" fill="#0F172A"/>
  <!-- Subtitle -->
  <rect x="64" y="164" width="300" height="10" rx="2" fill="#CBD5E1"/>
  <!-- Divider -->
  <line x1="64" y1="190" x2="528" y2="190" stroke="#F1F5F9" stroke-width="1.5"/>
  <!-- Section heading -->
  <rect x="64" y="210" width="180" height="11" rx="2" fill="#0F172A"/>
  <!-- Numbered steps -->
  <rect x="64" y="236" width="20" height="20" rx="10" fill="#FFF1F2"/>
  <rect x="72" y="242" width="8" height="8" rx="1" fill="#E11D48"/>
  <rect x="96" y="238" width="300" height="8" rx="2" fill="#94A3B8"/>
  <rect x="96" y="252" width="260" height="8" rx="2" fill="#E2E8F0"/>
  <rect x="64" y="276" width="20" height="20" rx="10" fill="#FFF1F2"/>
  <rect x="72" y="282" width="8" height="8" rx="1" fill="#E11D48"/>
  <rect x="96" y="278" width="280" height="8" rx="2" fill="#94A3B8"/>
  <rect x="96" y="292" width="240" height="8" rx="2" fill="#E2E8F0"/>
  <rect x="64" y="316" width="20" height="20" rx="10" fill="#FFF1F2"/>
  <rect x="72" y="322" width="8" height="8" rx="1" fill="#E11D48"/>
  <rect x="96" y="318" width="320" height="8" rx="2" fill="#94A3B8"/>
  <rect x="96" y="332" width="200" height="8" rx="2" fill="#E2E8F0"/>
  <rect x="64" y="356" width="20" height="20" rx="10" fill="#FFF1F2"/>
  <rect x="72" y="362" width="8" height="8" rx="1" fill="#E11D48"/>
  <rect x="96" y="358" width="260" height="8" rx="2" fill="#94A3B8"/>
  <rect x="96" y="372" width="220" height="8" rx="2" fill="#E2E8F0"/>
  <!-- Second section heading -->
  <rect x="64" y="406" width="200" height="11" rx="2" fill="#0F172A"/>
  <!-- Body text lines -->
  <rect x="64" y="430" width="464" height="8" rx="2" fill="#E2E8F0"/>
  <rect x="64" y="446" width="440" height="8" rx="2" fill="#E2E8F0"/>
  <rect x="64" y="462" width="400" height="8" rx="2" fill="#E2E8F0"/>
  <!-- Third section heading -->
  <rect x="64" y="492" width="160" height="11" rx="2" fill="#0F172A"/>
  <rect x="64" y="516" width="464" height="8" rx="2" fill="#E2E8F0"/>
  <rect x="64" y="532" width="380" height="8" rx="2" fill="#E2E8F0"/>
  <!-- Signature block -->
  <rect x="64" y="600" width="160" height="1" fill="#CBD5E1"/>
  <rect x="64" y="610" width="100" height="8" rx="2" fill="#CBD5E1"/>
  <rect x="340" y="600" width="160" height="1" fill="#CBD5E1"/>
  <rect x="340" y="610" width="80" height="8" rx="2" fill="#CBD5E1"/>
  <!-- Footer -->
  <rect x="64" y="700" width="200" height="7" rx="2" fill="#E2E8F0"/>
  <rect x="440" y="700" width="88" height="7" rx="2" fill="#FBCFE8"/>
</svg>
