<svg xmlns="http://www.w3.org/2000/svg" width="600" height="780" viewBox="0 0 600 780" fill="none">
  <rect width="600" height="780" rx="28" fill="#FEFCE8"/>
  <rect x="42" y="42" width="516" height="696" rx="24" fill="white" stroke="#FDE047" stroke-width="2"/>
  <rect x="72" y="74" width="210" height="28" rx="14" fill="#FEF9C3"/>
  <rect x="72" y="124" width="338" height="26" rx="13" fill="#1F2937"/>
  <rect x="72" y="164" width="236" height="14" rx="7" fill="#CBD5E1"/>
  <rect x="72" y="220" width="146" height="170" rx="22" fill="#FFF7ED"/>
  <circle cx="145" cy="280" r="34" fill="#F59E0B"/>
  <rect x="110" y="330" width="70" height="12" rx="6" fill="#92400E"/>
  <rect x="236" y="220" width="146" height="170" rx="22" fill="#F0FDF4"/>
  <circle cx="309" cy="280" r="34" fill="#22C55E"/>
  <rect x="274" y="330" width="70" height="12" rx="6" fill="#166534"/>
  <rect x="400" y="220" width="128" height="170" rx="22" fill="#EFF6FF"/>
  <circle cx="464" cy="280" r="34" fill="#3B82F6"/>
  <rect x="432" y="330" width="64" height="12" rx="6" fill="#1E3A8A"/>
  <rect x="72" y="426" width="456" height="44" rx="16" fill="#F8FAFC"/>
  <rect x="96" y="442" width="214" height="12" rx="6" fill="#334155"/>
  <rect x="72" y="486" width="456" height="44" rx="16" fill="#F8FAFC"/>
  <rect x="96" y="502" width="256" height="12" rx="6" fill="#334155"/>
  <rect x="72" y="546" width="456" height="124" rx="22" fill="#FFF7ED"/>
  <rect x="98" y="578" width="182" height="18" rx="9" fill="#CA8A04"/>
  <rect x="98" y="612" width="394" height="12" rx="6" fill="#A1A1AA"/>
</svg>
